# xmcd CD database file
# Copyright (C) 1993-1998 Ti Kan
#
# Track frame offsets:
#	182
#	16802
#	36025
#	52335
#	62150
#	79810
#	92565
#	107830
#	129077
#	143045
#
# Disc length: 2106 seconds
#
# Revision: 1
# Processed by: cddbd v1.4b41PL1 Copyright (c) Steve Scherf et al.
# Submitted via: CDValet v3.31 - Copyright (c) 1997 Greg Leichner
#
DISCID=7e08380a
DTITLE=Doug Stevens - Doug Stevens and the OutBand
DYEAR=1900
DGENRE=
TTITLE0=Out in the Country
TTITLE1=Sweet Breath of Love
TTITLE2=Born in Mississippi
TTITLE3=Git While the Gitten is Good
TTITLE4=Rain Dance
TTITLE5=White Trash
TTITLE6=Joven Amor Tejano
TTITLE7=HIV Blues
TTITLE8=Cactus Country
TTITLE9=ACT Up
EXTD=
EXTT0=
EXTT1=
EXTT2=
EXTT3=
EXTT4=
EXTT5=
EXTT6=
EXTT7=
EXTT8=
EXTT9=
PLAYORDER=
